{"title":"Knocked Up - Unrated and Unprotected (2007) 1CD DVDRip Xvid ~VR~","uid":5484476,"size":729908692,"categoryP":"video","categoryS":"movies","magnet":"?xt=urn:btih:92177cfcf067b2eaeee0e9d80b7377ac0b83debb&amp;dn=Knocked+Up+-+Unrated+and+Unprotected+%282007%29+1CD+DVDRip+Xvid+%7EVR%7E&amp;tr=udp%3A%2F%2Ftracker.openbittorrent.com%3A80&amp;tr=udp%3A%2F%2Fopen.demonii.com%3A1337&amp;tr=udp%3A%2F%2Ftracker.coppersurfer.tk%3A6969&amp;tr=udp%3A%2F%2Fexodus.desync.com%3A6969","seeders":0,"leechers":1,"uploader":"vraxxo","files":3,"time":1270633027,"description":"IMDB Rating: 7.5/10\n\nIMDB Link: http://www.imdb.com/title/tt0478311/\n\nSubtitles: English (Included in torrent file)\n\nSample screens: \n\n\nA/V info:\n\nFormat                           : AVI\nFormat/Info                      : Audio Video Interleave\nFormat profile                   : OpenDML\nFile size                        : 685 MiB\nDuration                         : 2h 12mn\nOverall bit rate                 : 720 Kbps\nWriting application              : AVI-Mux GUI 1.17.8.3, Feb 16 201019:42:50\n\nVideo\nID                               : 0\nFormat                           : MPEG-4 Visual\nFormat profile                   : AdvancedSimple@L5\nFormat settings, BVOP            : Yes\nFormat settings, QPel            : Yes\nFormat settings, GMC             : No warppoints\nFormat settings, Matrix          : Default (H.263)\nCodec ID                         : XVID\nCodec ID/Hint                    : XviD\nDuration                         : 2h 12mn\nBit rate                         : 590 Kbps\nWidth                            : 640 pixels\nHeight                           : 304 pixels\nDisplay aspect ratio             : 2.2:1\nFrame rate                       : 23.976 fps\nResolution                       : 24 bits\nColorimetry                      : 4:2:0\nScan type                        : Progressive\nBits/(Pixel*Frame)               : 0.127\nStream size                      : 561 MiB (82%)\nWriting library                  : XviD 1.2.1 (UTC 2008-12-04)\n\nAudio\nID                               : 1\nFormat                           : MPEG Audio\nFormat version                   : Version 1\nFormat profile                   : Layer 3\nFormat_Settings_Mode             : Joint stereo / MS Stereo\nCodec ID                         : 55\nCodec ID/Hint                    : MP3\nDuration                         : 2h 12mn\nBit rate mode                    : Variable\nBit rate                         : 121 Kbps\nNominal bit rate                 : 128 Kbps\nChannel(s)                       : 2 channels\nSampling rate                    : 48.0 KHz\nResolution                       : 16 bits\nStream size                      : 115 MiB (17%)\nAlignment                        : Aligned on interleaves\nInterleave, duration             : 24 ms (0.58 video frame)\nInterleave, preload duration     : 69 ms\nWriting library                  : LAME3.97b\n\n\n","torrent":{"xt":"urn:btih:92177cfcf067b2eaeee0e9d80b7377ac0b83debb","amp;dn":"Knocked+Up+-+Unrated+and+Unprotected+%282007%29+1CD+DVDRip+Xvid+%7EVR%7E","amp;tr":["udp%3A%2F%2Ftracker.openbittorrent.com%3A80","udp%3A%2F%2Fopen.demonii.com%3A1337","udp%3A%2F%2Ftracker.coppersurfer.tk%3A6969","udp%3A%2F%2Fexodus.desync.com%3A6969"],"infoHash":"92177cfcf067b2eaeee0e9d80b7377ac0b83debb","infoHashBuffer":{"type":"Buffer","data":[146,23,124,252,240,103,178,234,238,224,233,216,11,115,119,172,11,131,222,187]},"announce":[],"urlList":[]}}